<?xml version="1.0" encoding="UTF-8" standalone="no"?>
<!-- Created with Inkscape (http://www.inkscape.org/) -->

<svg
   xmlns:dc="http://purl.org/dc/elements/1.1/"
   xmlns:cc="http://creativecommons.org/ns#"
   xmlns:rdf="http://www.w3.org/1999/02/22-rdf-syntax-ns#"
   xmlns:svg="http://www.w3.org/2000/svg"
   xmlns="http://www.w3.org/2000/svg"
   xmlns:xlink="http://www.w3.org/1999/xlink"
   xmlns:sodipodi="http://sodipodi.sourceforge.net/DTD/sodipodi-0.dtd"
   xmlns:inkscape="http://www.inkscape.org/namespaces/inkscape"
   width="297mm"
   height="210mm"
   viewBox="0 0 1052.3622 744.09448"
   id="svg2"
   version="1.1"
   inkscape:version="0.91 r13725"
   sodipodi:docname="kladenets1.svg">
  <defs
     id="defs4">
    <marker
       style="overflow:visible"
       refY="0.0"
       refX="0.0"
       orient="auto"
       id="DistanceX">
      <path
         id="path5966"
         style="stroke:#000000; stroke-width:0.5"
         d="M 3,-3 L -3,3 M 0,-5 L  0,5" />
    </marker>
    <pattern
       y="0"
       x="0"
       width="8"
       patternUnits="userSpaceOnUse"
       id="Hatch"
       height="8">
      <path
         id="path5969"
         stroke-width="0.25"
         stroke="#000000"
         linecap="square"
         d="M8 4 l-4,4" />
      <path
         id="path5971"
         stroke-width="0.25"
         stroke="#000000"
         linecap="square"
         d="M6 2 l-4,4" />
      <path
         id="path5973"
         stroke-width="0.25"
         stroke="#000000"
         linecap="square"
         d="M4 0 l-4,4" />
    </pattern>
    <symbol
       id="*Model_Space" />
    <symbol
       id="*Paper_Space" />
    <symbol
       id="*Paper_Space0" />
    <symbol
       id="block_2" />
    <symbol
       id="block_3" />
    <symbol
       id="block_4" />
    <symbol
       id="block_5" />
    <symbol
       id="block_6" />
    <symbol
       id="block_7" />
    <symbol
       id="block_8" />
    <symbol
       id="block_9" />
    <symbol
       id="block_10" />
    <symbol
       id="block_11" />
    <symbol
       id="block_12" />
    <symbol
       id="block_13" />
    <symbol
       id="block_14" />
    <symbol
       id="block_15" />
    <symbol
       id="block_16" />
    <symbol
       id="block_17" />
    <symbol
       id="block_18" />
    <symbol
       id="block_19" />
    <symbol
       id="block_20" />
    <symbol
       id="block_21" />
    <symbol
       id="block_22" />
    <symbol
       id="block_23" />
    <symbol
       id="block_24" />
    <symbol
       id="block_25" />
    <symbol
       id="block_26" />
    <symbol
       id="block_27" />
    <symbol
       id="block_28" />
    <symbol
       id="block_29" />
    <symbol
       id="block_30" />
    <symbol
       id="block_31" />
    <symbol
       id="block_32" />
    <symbol
       id="block_33" />
    <symbol
       id="block_34" />
    <symbol
       id="block_35" />
    <symbol
       id="block_36" />
    <symbol
       id="block_37" />
    <symbol
       id="block_38" />
    <symbol
       id="block_39" />
    <symbol
       id="block_40" />
    <symbol
       id="block_41" />
    <symbol
       id="block_42" />
    <symbol
       id="block_43" />
    <symbol
       id="block_44" />
    <symbol
       id="block_45" />
    <symbol
       id="block_46" />
    <symbol
       id="block_47" />
    <symbol
       id="block_48" />
    <symbol
       id="block_49" />
    <symbol
       id="block_50" />
    <symbol
       id="block_51" />
    <symbol
       id="block_52" />
    <symbol
       id="block_53" />
    <symbol
       id="block_54" />
    <symbol
       id="block_55" />
    <symbol
       id="block_56" />
    <symbol
       id="block_57" />
    <symbol
       id="block_58" />
    <symbol
       id="block_59" />
    <symbol
       id="block_60" />
    <symbol
       id="block_61" />
    <symbol
       id="block_62" />
    <symbol
       id="block_63" />
    <symbol
       id="block_64" />
    <symbol
       id="block_65" />
    <symbol
       id="block_66" />
    <symbol
       id="block_67" />
    <symbol
       id="block_68" />
    <symbol
       id="block_69" />
    <symbol
       id="block_70" />
    <symbol
       id="block_71" />
    <symbol
       id="block_72" />
    <symbol
       id="block_73" />
    <symbol
       id="block_74" />
    <symbol
       id="block_75" />
    <symbol
       id="block_76" />
    <symbol
       id="block_77" />
    <symbol
       id="block_78" />
    <symbol
       id="block_79" />
    <symbol
       id="block_80" />
    <symbol
       id="block_81" />
    <symbol
       id="block_82" />
    <symbol
       id="block_83" />
    <symbol
       id="block_84" />
    <symbol
       id="block_85" />
    <symbol
       id="block_86" />
    <symbol
       id="block_87" />
    <symbol
       id="block_88" />
    <symbol
       id="block_89" />
    <symbol
       id="block_90" />
    <symbol
       id="block_91" />
    <symbol
       id="block_92" />
    <symbol
       id="block_93" />
    <symbol
       id="block_94" />
    <symbol
       id="block_95" />
    <symbol
       id="block_96" />
    <symbol
       id="block_97" />
    <symbol
       id="block_98" />
    <symbol
       id="block_99" />
    <symbol
       id="block_100" />
    <symbol
       id="block_101" />
    <symbol
       id="block_102" />
    <symbol
       id="block_103" />
  </defs>
  <sodipodi:namedview
     id="base"
     pagecolor="#ffffff"
     bordercolor="#666666"
     borderopacity="1.0"
     inkscape:pageopacity="0.0"
     inkscape:pageshadow="2"
     inkscape:zoom="0.5"
     inkscape:cx="272.52364"
     inkscape:cy="274.44441"
     inkscape:document-units="mm"
     inkscape:current-layer="layer1"
     showgrid="false"
     inkscape:window-width="1920"
     inkscape:window-height="1027"
     inkscape:window-x="0"
     inkscape:window-y="0"
     inkscape:window-maximized="1"
     showguides="false">
    <inkscape:grid
       type="xygrid"
       id="grid4138"
       units="mm"
       spacingx="3.5433071"
       spacingy="3.5433072" />
    <sodipodi:guide
       position="-274.35744,861.25606"
       orientation="1,0"
       id="guide4559" />
  </sodipodi:namedview>
  <metadata
     id="metadata7">
    <rdf:RDF>
      <cc:Work
         rdf:about="">
        <dc:format>image/svg+xml</dc:format>
        <dc:type
           rdf:resource="http://purl.org/dc/dcmitype/StillImage" />
        <dc:title />
      </cc:Work>
    </rdf:RDF>
  </metadata>
  <g
     inkscape:label="Layer 1"
     inkscape:groupmode="layer"
     id="layer1"
     transform="translate(0,-308.26772)">
    <text
       xml:space="preserve"
       style="font-style:normal;font-variant:normal;font-weight:normal;font-stretch:normal;font-size:40px;line-height:125%;font-family:'Times New Roman';-inkscape-font-specification:'Times New Roman, ';letter-spacing:0px;word-spacing:0px;fill:#000000;fill-opacity:1;stroke:none;stroke-width:1px;stroke-linecap:butt;stroke-linejoin:miter;stroke-opacity:1"
       x="84"
       y="506.36221"
       id="text4465"
       sodipodi:linespacing="125%"><tspan
         sodipodi:role="line"
         id="tspan4467"
         x="84"
         y="506.36221" /></text>
    <path
       style="opacity:1;fill:none;fill-opacity:0.34285715;stroke:#000000;stroke-width:0.70866144;stroke-linecap:butt;stroke-linejoin:miter;stroke-miterlimit:4;stroke-dasharray:none;stroke-dashoffset:0;stroke-opacity:1"
       d="m 38.47656,339.80678 0,35.4336 1.08203,1.59375 -1.08203,1.5957 0,181.0625 1.07813,1.59375 -1.07813,1.5957 0,35.78711 1.04492,1.59571 -1.04492,1.59374 0,113.73829 1.05469,1.59375 -1.05469,1.5957 0,35.43359 821.69336,0 0,-35.43359 -1.05664,-1.5957 1.05664,-1.59375 0,-113.73829 -1.09961,-1.59374 1.09961,-1.59571 0,-35.78711 -1.07812,-1.5957 1.07812,-1.59375 0,-181.0625 -1.08203,-1.5957 1.08203,-1.59375 0,-35.4336 -410.97265,0 z m 384.33985,17.375 52.76171,0 0,18.0586 1.03711,1.59375 -1.03711,1.5957 -12.03515,44.80273 -28.79297,0 -11.93359,-44.80273 -1.06836,-1.5957 1.06836,-1.59375 z m -348.90625,53.49219 49.25195,0 0,49.25195 -49.25195,0 z m 85.03906,0 49.25195,0 0,49.25195 -49.25195,0 z m 85.03906,0 49.25195,0 0,49.25195 -49.25195,0 z m 85.03906,0 49.25196,0 0,49.25195 -49.25196,0 z m 191.33789,0 49.25391,0 0,49.25195 -49.25391,0 z m 85.04102,0 49.25195,0 0,49.25195 -49.25195,0 z m 85.03906,0 49.25196,0 0,49.25195 -49.25196,0 z m 85.03907,0 49.25195,0 0,49.25195 -49.25195,0 z m -701.57422,67.32227 49.25195,0 0,49.25195 -49.25195,0 z m 85.03906,0 49.25195,0 0,49.25195 -49.25195,0 z m 85.03906,0 49.25195,0 0,49.25195 -49.25195,0 z m 85.03906,0 49.25196,0 0,49.25195 -49.25196,0 z m 191.33789,0 49.25391,0 0,49.25195 -49.25391,0 z m 85.04102,0 49.25195,0 0,49.25195 -49.25195,0 z m 85.03906,0 49.25196,0 0,49.25195 -49.25196,0 z m 85.03907,0 49.25195,0 0,49.25195 -49.25195,0 z m -326.06641,4.2871 c 6.09454,-0.13438 12.15792,1.51311 16.875,5.34766 -1.56592,17.1495 -6.76375,26.59741 -16.96875,37.34961 -9.96139,-10.3222 -14.81443,-19.34001 -16.9668,-37.34961 4.84039,-3.297 10.96601,-5.21324 17.06055,-5.34766 z m 8.44141,88.0918 c 1.07509,8.6e-4 1.94641,0.87218 1.94726,1.94727 2.2e-4,1.07585 -0.87141,1.94836 -1.94726,1.94922 -1.07662,2.2e-4 -1.94944,-0.8726 -1.94922,-1.94922 8.6e-4,-1.07585 0.87337,-1.94749 1.94922,-1.94727 z m -17.36915,0.2207 c 1.07662,-2.2e-4 1.94944,0.8726 1.94922,1.94922 -8.6e-4,1.07585 -0.87337,1.94749 -1.94922,1.94727 -1.07585,2.2e-4 -1.94835,-0.87142 -1.94921,-1.94727 -2.2e-4,-1.07661 0.8726,-1.94944 1.94921,-1.94922 z m -375.61718,4.8418 c 2.83745,-4.8e-4 5.13808,2.29927 5.13867,5.13672 4.8e-4,2.83821 -2.30046,5.13915 -5.13867,5.13867 -2.83745,-5.9e-4 -5.1372,-2.30122 -5.13672,-5.13867 5.9e-4,-2.83669 2.30003,-5.13613 5.13672,-5.13672 z m 768.89843,0 c 2.83745,-4.9e-4 5.13809,2.29927 5.13868,5.13672 4.8e-4,2.83821 -2.30047,5.13916 -5.13868,5.13867 -2.83744,-6e-4 -5.13719,-2.30123 -5.13671,-5.13867 5.9e-4,-2.83668 2.30003,-5.13612 5.13671,-5.13672 z m -375.9121,3.64258 c 1.07585,8.6e-4 1.94748,0.87337 1.94726,1.94922 2.2e-4,1.07585 -0.87141,1.94836 -1.94726,1.94922 -1.07662,2.2e-4 -1.94944,-0.8726 -1.94922,-1.94922 -2.2e-4,-1.07662 0.8726,-1.94944 1.94922,-1.94922 z m -17.36915,8.83984 c 1.07662,-2.2e-4 1.94944,0.8726 1.94922,1.94922 -8.6e-4,1.07585 -0.87337,1.94749 -1.94922,1.94727 -1.07585,2.2e-4 -1.94835,-0.87142 -1.94921,-1.94727 -2.2e-4,-1.07661 0.8726,-1.94944 1.94921,-1.94922 z m 17.36915,0 c 1.07585,8.6e-4 1.94748,0.87337 1.94726,1.94922 -8.5e-4,1.07509 -0.87217,1.94641 -1.94726,1.94727 -1.07585,2.2e-4 -1.94836,-0.87142 -1.94922,-1.94727 -2.2e-4,-1.07662 0.8726,-1.94944 1.94922,-1.94922 z m -160.72266,45.98047 49.2539,0 0,49.25391 -49.2539,0 z m 67.32422,0 49.25195,0 0,49.25391 -49.25195,0 z m 120.47265,0 49.25196,0 0,49.25391 -49.25196,0 z m 67.32227,0 49.25195,0 0,49.25391 -49.25195,0 z"
       id="rect4282-7"
       inkscape:connector-curvature="0"
       sodipodi:nodetypes="cccccccccccccccccccccccccccccccccccccccccccccccccccccccccccccccccccccccccccccccccccccccccccccccccccccccccccccccccccccccccscccsccccccccccccccccccccccccccccccccccccccccccccccccccccccc" />
    <g
       id="g6080"
       inkscape:label="0"
       transform="translate(0,308.26772)">
      <use
         id="use6082"
         xlink:href="#block_2"
         y="-1052.3622"
         x="0"
         width="100%"
         height="100%" />
      <use
         id="use6084"
         xlink:href="#block_3"
         y="-1052.3622"
         x="0"
         width="100%"
         height="100%" />
      <use
         id="use6086"
         xlink:href="#block_4"
         y="-1052.3622"
         x="0"
         width="100%"
         height="100%" />
      <use
         id="use6088"
         xlink:href="#block_5"
         y="-1052.3622"
         x="0"
         width="100%"
         height="100%" />
      <use
         id="use6090"
         xlink:href="#block_6"
         y="-1052.3622"
         x="0"
         width="100%"
         height="100%" />
      <use
         id="use6092"
         xlink:href="#block_7"
         y="-1052.3622"
         x="0"
         width="100%"
         height="100%" />
      <use
         id="use6094"
         xlink:href="#block_8"
         y="-1052.3622"
         x="0"
         width="100%"
         height="100%" />
      <use
         id="use6096"
         xlink:href="#block_9"
         y="-1052.3622"
         x="0"
         width="100%"
         height="100%" />
      <use
         id="use6098"
         xlink:href="#block_10"
         y="-1052.3622"
         x="0"
         width="100%"
         height="100%" />
      <use
         id="use6100"
         xlink:href="#block_11"
         y="-1052.3622"
         x="0"
         width="100%"
         height="100%" />
      <use
         id="use6102"
         xlink:href="#block_12"
         y="-1052.3622"
         x="0"
         width="100%"
         height="100%" />
      <use
         id="use6104"
         xlink:href="#block_13"
         y="-1052.3622"
         x="0"
         width="100%"
         height="100%" />
      <use
         id="use6106"
         xlink:href="#block_14"
         y="-1052.3622"
         x="0"
         width="100%"
         height="100%" />
      <use
         id="use6108"
         xlink:href="#block_15"
         y="-1052.3622"
         x="0"
         width="100%"
         height="100%" />
      <use
         id="use6110"
         xlink:href="#block_16"
         y="-1052.3622"
         x="0"
         width="100%"
         height="100%" />
      <use
         id="use6112"
         xlink:href="#block_17"
         y="-1052.3622"
         x="0"
         width="100%"
         height="100%" />
      <use
         id="use6114"
         xlink:href="#block_18"
         y="-1052.3622"
         x="0"
         width="100%"
         height="100%" />
      <use
         id="use6116"
         xlink:href="#block_19"
         y="-1052.3622"
         x="0"
         width="100%"
         height="100%" />
      <use
         id="use6118"
         xlink:href="#block_20"
         y="-1052.3622"
         x="0"
         width="100%"
         height="100%" />
      <use
         id="use6120"
         xlink:href="#block_21"
         y="-1052.3622"
         x="0"
         width="100%"
         height="100%" />
      <use
         id="use6122"
         xlink:href="#block_22"
         y="-1052.3622"
         x="0"
         width="100%"
         height="100%" />
      <use
         id="use6124"
         xlink:href="#block_23"
         y="-1052.3622"
         x="0"
         width="100%"
         height="100%" />
      <use
         id="use6126"
         xlink:href="#block_24"
         y="-1052.3622"
         x="0"
         width="100%"
         height="100%" />
      <use
         id="use6128"
         xlink:href="#block_25"
         y="-1052.3622"
         x="0"
         width="100%"
         height="100%" />
      <use
         id="use6130"
         xlink:href="#block_26"
         y="-1052.3622"
         x="0"
         width="100%"
         height="100%" />
      <use
         id="use6132"
         xlink:href="#block_27"
         y="-1052.3622"
         x="0"
         width="100%"
         height="100%" />
      <use
         id="use6134"
         xlink:href="#block_28"
         y="-1052.3622"
         x="0"
         width="100%"
         height="100%" />
      <use
         id="use6136"
         xlink:href="#block_29"
         y="-1052.3622"
         x="0"
         width="100%"
         height="100%" />
      <use
         id="use6138"
         xlink:href="#block_30"
         y="-1052.3622"
         x="0"
         width="100%"
         height="100%" />
      <use
         id="use6140"
         xlink:href="#block_31"
         y="-1052.3622"
         x="0"
         width="100%"
         height="100%" />
      <use
         id="use6142"
         xlink:href="#block_32"
         y="-1052.3622"
         x="0"
         width="100%"
         height="100%" />
      <use
         id="use6144"
         xlink:href="#block_33"
         y="-1052.3622"
         x="0"
         width="100%"
         height="100%" />
      <use
         id="use6146"
         xlink:href="#block_34"
         y="-1052.3622"
         x="0"
         width="100%"
         height="100%" />
      <use
         id="use6148"
         xlink:href="#block_35"
         y="-1052.3622"
         x="0"
         width="100%"
         height="100%" />
      <use
         id="use6150"
         xlink:href="#block_36"
         y="-1052.3622"
         x="0"
         width="100%"
         height="100%" />
      <use
         id="use6152"
         xlink:href="#block_37"
         y="-1052.3622"
         x="0"
         width="100%"
         height="100%" />
      <use
         id="use6154"
         xlink:href="#block_38"
         y="-1052.3622"
         x="0"
         width="100%"
         height="100%" />
      <use
         id="use6156"
         xlink:href="#block_39"
         y="-1052.3622"
         x="0"
         width="100%"
         height="100%" />
      <use
         id="use6158"
         xlink:href="#block_40"
         y="-1052.3622"
         x="0"
         width="100%"
         height="100%" />
      <use
         id="use6160"
         xlink:href="#block_41"
         y="-1052.3622"
         x="0"
         width="100%"
         height="100%" />
      <use
         id="use6162"
         xlink:href="#block_42"
         y="-1052.3622"
         x="0"
         width="100%"
         height="100%" />
      <use
         id="use6164"
         xlink:href="#block_43"
         y="-1052.3622"
         x="0"
         width="100%"
         height="100%" />
      <use
         id="use6166"
         xlink:href="#block_44"
         y="-1052.3622"
         x="0"
         width="100%"
         height="100%" />
      <use
         id="use6168"
         xlink:href="#block_45"
         y="-1052.3622"
         x="0"
         width="100%"
         height="100%" />
      <use
         id="use6170"
         xlink:href="#block_46"
         y="-1052.3622"
         x="0"
         width="100%"
         height="100%" />
      <use
         id="use6172"
         xlink:href="#block_47"
         y="-1052.3622"
         x="0"
         width="100%"
         height="100%" />
      <use
         id="use6174"
         xlink:href="#block_48"
         y="-1052.3622"
         x="0"
         width="100%"
         height="100%" />
      <use
         id="use6176"
         xlink:href="#block_49"
         y="-1052.3622"
         x="0"
         width="100%"
         height="100%" />
      <use
         id="use6178"
         xlink:href="#block_50"
         y="-1052.3622"
         x="0"
         width="100%"
         height="100%" />
      <use
         id="use6180"
         xlink:href="#block_51"
         y="-1052.3622"
         x="0"
         width="100%"
         height="100%" />
      <use
         id="use6182"
         xlink:href="#block_52"
         y="-1052.3622"
         x="0"
         width="100%"
         height="100%" />
      <use
         id="use6184"
         xlink:href="#block_53"
         y="-1052.3622"
         x="0"
         width="100%"
         height="100%" />
      <use
         id="use6186"
         xlink:href="#block_54"
         y="-1052.3622"
         x="0"
         width="100%"
         height="100%" />
      <use
         id="use6188"
         xlink:href="#block_55"
         y="-1052.3622"
         x="0"
         width="100%"
         height="100%" />
      <use
         id="use6190"
         xlink:href="#block_56"
         y="-1052.3622"
         x="0"
         width="100%"
         height="100%" />
      <use
         id="use6192"
         xlink:href="#block_57"
         y="-1052.3622"
         x="0"
         width="100%"
         height="100%" />
      <use
         id="use6194"
         xlink:href="#block_58"
         y="-1052.3622"
         x="0"
         width="100%"
         height="100%" />
      <use
         id="use6196"
         xlink:href="#block_59"
         y="-1052.3622"
         x="0"
         width="100%"
         height="100%" />
      <use
         id="use6198"
         xlink:href="#block_60"
         y="-1052.3622"
         x="0"
         width="100%"
         height="100%" />
      <use
         id="use6200"
         xlink:href="#block_61"
         y="-1052.3622"
         x="0"
         width="100%"
         height="100%" />
      <use
         id="use6202"
         xlink:href="#block_62"
         y="-1052.3622"
         x="0"
         width="100%"
         height="100%" />
      <use
         id="use6204"
         xlink:href="#block_63"
         y="-1052.3622"
         x="0"
         width="100%"
         height="100%" />
      <use
         id="use6206"
         xlink:href="#block_64"
         y="-1052.3622"
         x="0"
         width="100%"
         height="100%" />
      <use
         id="use6208"
         xlink:href="#block_65"
         y="-1052.3622"
         x="0"
         width="100%"
         height="100%" />
      <use
         id="use6210"
         xlink:href="#block_66"
         y="-1052.3622"
         x="0"
         width="100%"
         height="100%" />
      <use
         id="use6212"
         xlink:href="#block_67"
         y="-1052.3622"
         x="0"
         width="100%"
         height="100%" />
      <use
         id="use6214"
         xlink:href="#block_68"
         y="-1052.3622"
         x="0"
         width="100%"
         height="100%" />
      <use
         id="use6216"
         xlink:href="#block_69"
         y="-1052.3622"
         x="0"
         width="100%"
         height="100%" />
      <use
         id="use6218"
         xlink:href="#block_70"
         y="-1052.3622"
         x="0"
         width="100%"
         height="100%" />
      <use
         id="use6220"
         xlink:href="#block_71"
         y="-1052.3622"
         x="0"
         width="100%"
         height="100%" />
      <use
         id="use6222"
         xlink:href="#block_72"
         y="-1052.3622"
         x="0"
         width="100%"
         height="100%" />
      <use
         id="use6224"
         xlink:href="#block_73"
         y="-1052.3622"
         x="0"
         width="100%"
         height="100%" />
      <use
         id="use6226"
         xlink:href="#block_74"
         y="-1052.3622"
         x="0"
         width="100%"
         height="100%" />
      <use
         id="use6228"
         xlink:href="#block_75"
         y="-1052.3622"
         x="0"
         width="100%"
         height="100%" />
      <use
         id="use6230"
         xlink:href="#block_76"
         y="-1052.3622"
         x="0"
         width="100%"
         height="100%" />
      <use
         id="use6232"
         xlink:href="#block_77"
         y="-1052.3622"
         x="0"
         width="100%"
         height="100%" />
      <use
         id="use6234"
         xlink:href="#block_78"
         y="-1052.3622"
         x="0"
         width="100%"
         height="100%" />
      <use
         id="use6236"
         xlink:href="#block_79"
         y="-1052.3622"
         x="0"
         width="100%"
         height="100%" />
      <use
         id="use6238"
         xlink:href="#block_80"
         y="-1052.3622"
         x="0"
         width="100%"
         height="100%" />
      <use
         id="use6240"
         xlink:href="#block_81"
         y="-1052.3622"
         x="0"
         width="100%"
         height="100%" />
      <use
         id="use6242"
         xlink:href="#block_82"
         y="-1052.3622"
         x="0"
         width="100%"
         height="100%" />
      <use
         id="use6244"
         xlink:href="#block_83"
         y="-1052.3622"
         x="0"
         width="100%"
         height="100%" />
      <use
         id="use6246"
         xlink:href="#block_84"
         y="-1052.3622"
         x="0"
         width="100%"
         height="100%" />
      <use
         id="use6248"
         xlink:href="#block_85"
         y="-1052.3622"
         x="0"
         width="100%"
         height="100%" />
      <use
         id="use6250"
         xlink:href="#block_86"
         y="-1052.3622"
         x="0"
         width="100%"
         height="100%" />
      <use
         id="use6252"
         xlink:href="#block_87"
         y="-1052.3622"
         x="0"
         width="100%"
         height="100%" />
      <use
         id="use6254"
         xlink:href="#block_88"
         y="-1052.3622"
         x="0"
         width="100%"
         height="100%" />
      <use
         id="use6256"
         xlink:href="#block_89"
         y="-1052.3622"
         x="0"
         width="100%"
         height="100%" />
      <use
         id="use6258"
         xlink:href="#block_90"
         y="-1052.3622"
         x="0"
         width="100%"
         height="100%" />
      <use
         id="use6260"
         xlink:href="#block_91"
         y="-1052.3622"
         x="0"
         width="100%"
         height="100%" />
      <use
         id="use6262"
         xlink:href="#block_92"
         y="-1052.3622"
         x="0"
         width="100%"
         height="100%" />
      <use
         id="use6264"
         xlink:href="#block_93"
         y="-1052.3622"
         x="0"
         width="100%"
         height="100%" />
      <use
         id="use6266"
         xlink:href="#block_94"
         y="-1052.3622"
         x="0"
         width="100%"
         height="100%" />
      <use
         id="use6268"
         xlink:href="#block_95"
         y="-1052.3622"
         x="0"
         width="100%"
         height="100%" />
      <use
         id="use6270"
         xlink:href="#block_96"
         y="-1052.3622"
         x="0"
         width="100%"
         height="100%" />
      <use
         id="use6272"
         xlink:href="#block_97"
         y="-1052.3622"
         x="0"
         width="100%"
         height="100%" />
      <use
         id="use6274"
         xlink:href="#block_98"
         y="-1052.3622"
         x="0"
         width="100%"
         height="100%" />
      <use
         id="use6276"
         xlink:href="#block_99"
         y="-1052.3622"
         x="0"
         width="100%"
         height="100%" />
      <use
         id="use6278"
         xlink:href="#block_100"
         y="-1052.3622"
         x="0"
         width="100%"
         height="100%" />
      <use
         id="use6280"
         xlink:href="#block_101"
         y="-1052.3622"
         x="0"
         width="100%"
         height="100%" />
      <use
         id="use6282"
         xlink:href="#block_102"
         y="-1052.3622"
         x="0"
         width="100%"
         height="100%" />
      <use
         id="use6284"
         xlink:href="#block_103"
         y="-1052.3622"
         x="0"
         width="100%"
         height="100%" />
    </g>
    <g
       id="g4565"
       transform="translate(-78.223826,24)"
       style="fill:none;stroke:#000000;stroke-width:0.70866144;stroke-miterlimit:4;stroke-dasharray:none;stroke-opacity:1">
      <path
         sodipodi:nodetypes="cc"
         inkscape:connector-curvature="0"
         id="path6673"
         d="m 193.12854,547.92431 0,18.57642"
         style="fill:none;fill-rule:evenodd;stroke:#000000;stroke-width:0.70866144;stroke-linecap:butt;stroke-linejoin:miter;stroke-miterlimit:4;stroke-dasharray:none;stroke-opacity:1" />
      <path
         sodipodi:nodetypes="cc"
         style="fill:none;fill-rule:evenodd;stroke:#000000;stroke-width:0.70866144;stroke-linecap:butt;stroke-linejoin:miter;stroke-miterlimit:4;stroke-dasharray:none;stroke-opacity:1"
         d="m 194.35644,558.66946 10.61614,-10.61992"
         id="path6675"
         inkscape:connector-curvature="0" />
      <path
         inkscape:connector-curvature="0"
         id="path6677"
         d="m 198.53222,556.22526 7.04851,10.1745"
         style="fill:none;fill-rule:evenodd;stroke:#000000;stroke-width:0.70866144;stroke-linecap:butt;stroke-linejoin:miter;stroke-miterlimit:4;stroke-dasharray:none;stroke-opacity:1"
         sodipodi:nodetypes="cc" />
      <path
         sodipodi:nodetypes="cscccc"
         inkscape:connector-curvature="0"
         id="path6679"
         d="m 209.15988,566.35305 c 0,0 2.57651,3.8e-4 3.62846,-1.70502 2.33605,-3.78715 1.77416,-15.15731 1.77416,-15.15731 m -0.13223,-1.34998 8.03067,-0.0285 0.0469,18.375"
         style="fill:none;fill-rule:evenodd;stroke:#000000;stroke-width:0.70866144;stroke-linecap:butt;stroke-linejoin:miter;stroke-miterlimit:4;stroke-dasharray:none;stroke-opacity:1" />
      <path
         sodipodi:nodetypes="ccc"
         inkscape:connector-curvature="0"
         id="path6685"
         d="m 227.08443,566.44317 7.14994,-18.34659 7.0625,18.28124"
         style="fill:none;fill-rule:evenodd;stroke:#000000;stroke-width:0.70866144;stroke-linecap:butt;stroke-linejoin:miter;stroke-miterlimit:4;stroke-dasharray:none;stroke-opacity:1" />
      <path
         sodipodi:nodetypes="cc"
         inkscape:connector-curvature="0"
         id="path6687"
         d="m 230.52524,560.56944 7.39238,0"
         style="fill:none;fill-rule:evenodd;stroke:#000000;stroke-width:0.70866144;stroke-linecap:butt;stroke-linejoin:miter;stroke-miterlimit:4;stroke-dasharray:none;stroke-opacity:1" />
      <path
         sodipodi:nodetypes="cccc"
         inkscape:connector-curvature="0"
         id="path6689"
         d="m 244.42514,570.41068 -0.003,-4.07747 17.06073,-0.0156 0.0156,4.09648"
         style="fill:none;fill-rule:evenodd;stroke:#000000;stroke-width:0.70866144;stroke-linecap:butt;stroke-linejoin:miter;stroke-miterlimit:4;stroke-dasharray:none;stroke-opacity:1" />
      <path
         sodipodi:nodetypes="csccc"
         inkscape:connector-curvature="0"
         id="path6691"
         d="m 246.4545,564.77639 c 0,0 0.72301,-0.30613 1.23744,-1.14905 2.20287,-3.60952 1.90571,-15.54276 1.90571,-15.54276 l 8.60753,0.0442 -0.0129,16.67349"
         style="fill:none;fill-rule:evenodd;stroke:#000000;stroke-width:0.70866144;stroke-linecap:butt;stroke-linejoin:miter;stroke-miterlimit:4;stroke-dasharray:none;stroke-opacity:1" />
      <path
         sodipodi:nodetypes="cc"
         inkscape:connector-curvature="0"
         id="path6693"
         d="m 266.41503,547.91883 0,18.57812"
         style="fill:none;fill-rule:evenodd;stroke:#000000;stroke-width:0.70866144;stroke-linecap:butt;stroke-linejoin:miter;stroke-miterlimit:4;stroke-dasharray:none;stroke-opacity:1" />
      <path
         sodipodi:nodetypes="cc"
         inkscape:connector-curvature="0"
         id="path6695"
         d="m 267.68335,556.61405 7.93649,0"
         style="fill:none;fill-rule:evenodd;stroke:#000000;stroke-width:0.70866144;stroke-linecap:butt;stroke-linejoin:miter;stroke-miterlimit:4;stroke-dasharray:none;stroke-opacity:1" />
      <path
         sodipodi:nodetypes="cc"
         inkscape:connector-curvature="0"
         id="path6697"
         d="m 282.27317,547.94095 0,18.53946"
         style="fill:none;fill-rule:evenodd;stroke:#000000;stroke-width:0.70866144;stroke-linecap:butt;stroke-linejoin:miter;stroke-miterlimit:4;stroke-dasharray:none;stroke-opacity:1" />
      <path
         sodipodi:nodetypes="cc"
         inkscape:connector-curvature="0"
         id="path6699"
         d="m 293.67603,547.94096 0,18.53945"
         style="fill:none;fill-rule:evenodd;stroke:#000000;stroke-width:0.70866144;stroke-linecap:butt;stroke-linejoin:miter;stroke-miterlimit:4;stroke-dasharray:none;stroke-opacity:1" />
      <path
         sodipodi:nodetypes="cc"
         inkscape:connector-curvature="0"
         id="path6701"
         d="m 283.40279,556.58392 10.25003,0.0183"
         style="fill:none;fill-rule:evenodd;stroke:#000000;stroke-width:0.70866144;stroke-linecap:butt;stroke-linejoin:miter;stroke-miterlimit:4;stroke-dasharray:none;stroke-opacity:1" />
      <path
         sodipodi:nodetypes="cccc"
         inkscape:connector-curvature="0"
         id="path6707"
         d="m 316.85645,547.92186 0,18.39795 13.72168,-0.003 0,4.09202"
         style="fill:none;fill-rule:evenodd;stroke:#000000;stroke-width:0.70866144;stroke-linecap:butt;stroke-linejoin:miter;stroke-miterlimit:4;stroke-dasharray:none;stroke-opacity:1" />
      <path
         style="fill:none;fill-rule:evenodd;stroke:#000000;stroke-width:0.70866144;stroke-linecap:butt;stroke-linejoin:miter;stroke-miterlimit:4;stroke-dasharray:none;stroke-opacity:1"
         d="m 301.00879,547.9348 0,18.5454"
         id="path6711"
         inkscape:connector-curvature="0"
         sodipodi:nodetypes="cc" />
      <path
         style="fill:none;fill-rule:evenodd;stroke:#000000;stroke-width:0.70866144;stroke-linecap:butt;stroke-linejoin:miter;stroke-miterlimit:4;stroke-dasharray:none;stroke-opacity:1"
         d="m 302.13648,556.61516 8.23336,0"
         id="path6713"
         inkscape:connector-curvature="0"
         sodipodi:nodetypes="cc" />
      <path
         style="fill:none;fill-rule:evenodd;stroke:#000000;stroke-width:0.70866144;stroke-linecap:butt;stroke-linejoin:miter;stroke-miterlimit:4;stroke-dasharray:none;stroke-opacity:1"
         d="m 267.68335,548.11405 9.18649,0"
         id="path4487"
         inkscape:connector-curvature="0"
         sodipodi:nodetypes="cc" />
      <path
         style="fill:none;fill-rule:evenodd;stroke:#000000;stroke-width:0.70866144;stroke-linecap:butt;stroke-linejoin:miter;stroke-miterlimit:4;stroke-dasharray:none;stroke-opacity:1"
         d="m 267.68335,566.31718 9.40524,0"
         id="path4489"
         inkscape:connector-curvature="0"
         sodipodi:nodetypes="cc" />
      <path
         sodipodi:nodetypes="cc"
         inkscape:connector-curvature="0"
         id="path4491"
         d="m 302.13648,566.32683 9.58128,0"
         style="fill:none;fill-rule:evenodd;stroke:#000000;stroke-width:0.70866144;stroke-linecap:butt;stroke-linejoin:miter;stroke-miterlimit:4;stroke-dasharray:none;stroke-opacity:1" />
      <path
         sodipodi:nodetypes="cc"
         inkscape:connector-curvature="0"
         id="path4493"
         d="m 302.13648,548.10778 9.36031,0"
         style="fill:none;fill-rule:evenodd;stroke:#000000;stroke-width:0.70866144;stroke-linecap:butt;stroke-linejoin:miter;stroke-miterlimit:4;stroke-dasharray:none;stroke-opacity:1" />
      <path
         sodipodi:nodetypes="cc"
         inkscape:connector-curvature="0"
         id="path4495"
         d="m 328.12349,547.74731 0,17.47347"
         style="fill:none;fill-rule:evenodd;stroke:#000000;stroke-width:0.70866144;stroke-linecap:butt;stroke-linejoin:miter;stroke-miterlimit:4;stroke-dasharray:none;stroke-opacity:1" />
    </g>
    <g
       id="g4588"
       transform="translate(-78.661687,24)"
       style="fill:none;stroke:#000000;stroke-width:0.70866144;stroke-miterlimit:4;stroke-dasharray:none;stroke-opacity:1">
      <path
         sodipodi:nodetypes="ccc"
         inkscape:connector-curvature="0"
         id="path6685-49"
         d="m 750.85897,566.51367 7.14994,-18.34659 7.0625,18.28124"
         style="fill:none;fill-rule:evenodd;stroke:#000000;stroke-width:0.70866144;stroke-linecap:butt;stroke-linejoin:miter;stroke-miterlimit:4;stroke-dasharray:none;stroke-opacity:1" />
      <path
         sodipodi:nodetypes="cc"
         inkscape:connector-curvature="0"
         id="path6687-5"
         d="m 754.08991,560.63994 7.68176,0"
         style="fill:none;fill-rule:evenodd;stroke:#000000;stroke-width:0.70866144;stroke-linecap:butt;stroke-linejoin:miter;stroke-miterlimit:4;stroke-dasharray:none;stroke-opacity:1" />
      <path
         sodipodi:nodetypes="cccccc"
         inkscape:connector-curvature="0"
         id="path6693-0"
         d="m 799.82082,548.09984 -9.25334,0 m -1.08501,-0.17188 0,18.57586 m 1.0566,-0.1875 9.48489,0"
         style="fill:none;fill-rule:evenodd;stroke:#000000;stroke-width:0.70866144;stroke-linecap:butt;stroke-linejoin:miter;stroke-miterlimit:4;stroke-dasharray:none;stroke-opacity:1" />
      <path
         sodipodi:nodetypes="cc"
         inkscape:connector-curvature="0"
         id="path6695-4"
         d="m 790.51188,556.59617 7.55361,0"
         style="fill:none;fill-rule:evenodd;stroke:#000000;stroke-width:0.70866144;stroke-linecap:butt;stroke-linejoin:miter;stroke-miterlimit:4;stroke-dasharray:none;stroke-opacity:1" />
      <path
         sodipodi:nodetypes="cc"
         inkscape:connector-curvature="0"
         id="path6673-3"
         d="m 722.08757,547.92801 0,18.57642"
         style="fill:none;fill-rule:evenodd;stroke:#000000;stroke-width:0.70866144;stroke-linecap:butt;stroke-linejoin:miter;stroke-miterlimit:4;stroke-dasharray:none;stroke-opacity:1" />
      <path
         sodipodi:nodetypes="cc"
         style="fill:none;fill-rule:evenodd;stroke:#000000;stroke-width:0.70866144;stroke-linecap:butt;stroke-linejoin:miter;stroke-miterlimit:4;stroke-dasharray:none;stroke-opacity:1"
         d="m 723.2509,556.58515 10.06199,-8.53191"
         id="path6675-67"
         inkscape:connector-curvature="0" />
      <path
         inkscape:connector-curvature="0"
         id="path6677-5"
         d="m 723.27469,556.57443 10.62425,9.76274"
         style="fill:none;fill-rule:evenodd;stroke:#000000;stroke-width:0.70866144;stroke-linecap:butt;stroke-linejoin:miter;stroke-miterlimit:4;stroke-dasharray:none;stroke-opacity:1"
         sodipodi:nodetypes="cc" />
      <path
         sodipodi:nodetypes="cccc"
         inkscape:connector-curvature="0"
         id="path4474"
         d="m 739.46251,547.92198 0,18.59158 m 0.90039,-0.17678 7.12078,0"
         style="fill:none;fill-rule:evenodd;stroke:#000000;stroke-width:0.70866144;stroke-linecap:butt;stroke-linejoin:miter;stroke-miterlimit:4;stroke-dasharray:none;stroke-opacity:1" />
      <path
         sodipodi:nodetypes="ccccc"
         inkscape:connector-curvature="0"
         id="path4478"
         d="m 805.125,566.43608 -0.0203,-16.33021 m -0.002,-2.13317 11.59508,18.35778 -0.0663,-18.37295"
         style="fill:none;fill-rule:evenodd;stroke:#000000;stroke-width:0.70866144;stroke-linecap:butt;stroke-linejoin:miter;stroke-miterlimit:4;stroke-dasharray:none;stroke-opacity:1" />
      <path
         sodipodi:nodetypes="cc"
         inkscape:connector-curvature="0"
         id="path4480"
         d="m 837.29197,548.10049 13.5,0"
         style="fill:none;fill-rule:evenodd;stroke:#000000;stroke-width:0.70866144;stroke-linecap:butt;stroke-linejoin:miter;stroke-miterlimit:4;stroke-dasharray:none;stroke-opacity:1" />
      <path
         sodipodi:nodetypes="cc"
         inkscape:connector-curvature="0"
         id="path4482"
         d="m 843.88052,549.15078 -0.006,17.35679"
         style="fill:none;fill-rule:evenodd;stroke:#000000;stroke-width:0.70866144;stroke-linecap:butt;stroke-linejoin:miter;stroke-miterlimit:4;stroke-dasharray:none;stroke-opacity:1" />
      <path
         sodipodi:nodetypes="cc"
         inkscape:connector-curvature="0"
         id="path4497"
         d="m 769.875,547.94033 0,18.56251"
         style="fill:none;fill-rule:evenodd;stroke:#000000;stroke-width:0.70866144;stroke-linecap:butt;stroke-linejoin:miter;stroke-miterlimit:4;stroke-dasharray:none;stroke-opacity:1" />
      <path
         sodipodi:nodetypes="czzzc"
         inkscape:connector-curvature="0"
         id="path4499"
         d="m 770.98437,548.12784 c 0,0 6.71538,-0.33239 9.53126,1.34375 2.81587,1.67613 3.71473,4.38228 3.68749,8.01562 -0.0272,3.63334 -1.06985,6.16182 -4.01562,7.625 -2.94577,1.46318 -8.9375,1.1875 -8.9375,1.1875"
         style="fill:none;fill-rule:evenodd;stroke:#000000;stroke-width:0.70866144;stroke-linecap:butt;stroke-linejoin:miter;stroke-miterlimit:4;stroke-dasharray:none;stroke-opacity:1" />
      <path
         style="fill:none;fill-rule:evenodd;stroke:#000000;stroke-width:0.70866144;stroke-linecap:butt;stroke-linejoin:miter;stroke-miterlimit:4;stroke-dasharray:none;stroke-opacity:1"
         d="m 834.25832,548.09984 -9.25334,0 m -1.08501,-0.17188 0,18.57586 m 1.0566,-0.1875 9.48489,0"
         id="path4501"
         inkscape:connector-curvature="0"
         sodipodi:nodetypes="cccccc" />
      <path
         style="fill:none;fill-rule:evenodd;stroke:#000000;stroke-width:0.70866144;stroke-linecap:butt;stroke-linejoin:miter;stroke-miterlimit:4;stroke-dasharray:none;stroke-opacity:1"
         d="m 824.94938,556.59617 7.55361,0"
         id="path4503"
         inkscape:connector-curvature="0"
         sodipodi:nodetypes="cc" />
      <path
         sodipodi:nodetypes="czzc"
         inkscape:connector-curvature="0"
         id="path4505"
         d="m 864.67732,550.05659 c 0,0 -3.22272,-1.36579 -5.65057,-1.34635 -2.42785,0.0194 -4.8559,0.90413 -4.74265,4.123 0.11325,3.21887 4.18643,3.92034 4.18643,3.92034"
         style="fill:none;fill-rule:evenodd;stroke:#000000;stroke-width:0.70866144;stroke-linecap:butt;stroke-linejoin:miter;stroke-miterlimit:4;stroke-dasharray:none;stroke-opacity:1" />
      <path
         style="fill:none;fill-rule:evenodd;stroke:#000000;stroke-width:0.70866144;stroke-linecap:butt;stroke-linejoin:miter;stroke-miterlimit:4;stroke-dasharray:none;stroke-opacity:1"
         d="m 852.98485,564.1857 c 0,0 3.50397,1.61579 5.93182,1.59635 2.42785,-0.0194 5.63715,-1.12288 5.5239,-4.34175 -0.11325,-3.21887 -4.12393,-4.32659 -4.12393,-4.32659"
         id="path4507"
         inkscape:connector-curvature="0"
         sodipodi:nodetypes="czzc" />
    </g>
  </g>
</svg>
