<?xml version="1.0" encoding="UTF-8" standalone="no"?>
<!-- Created with Inkscape (http://www.inkscape.org/) -->

<svg
   xmlns:dc="http://purl.org/dc/elements/1.1/"
   xmlns:cc="http://creativecommons.org/ns#"
   xmlns:rdf="http://www.w3.org/1999/02/22-rdf-syntax-ns#"
   xmlns:svg="http://www.w3.org/2000/svg"
   xmlns="http://www.w3.org/2000/svg"
   xmlns:xlink="http://www.w3.org/1999/xlink"
   xmlns:sodipodi="http://sodipodi.sourceforge.net/DTD/sodipodi-0.dtd"
   xmlns:inkscape="http://www.inkscape.org/namespaces/inkscape"
   width="297mm"
   height="210mm"
   viewBox="0 0 1052.3622 744.09448"
   id="svg2"
   version="1.1"
   inkscape:version="0.91 r13725"
   sodipodi:docname="kladenets2.svg">
  <defs
     id="defs4">
    <marker
       style="overflow:visible"
       refY="0.0"
       refX="0.0"
       orient="auto"
       id="DistanceX">
      <path
         id="path5966"
         style="stroke:#000000; stroke-width:0.5"
         d="M 3,-3 L -3,3 M 0,-5 L  0,5" />
    </marker>
    <pattern
       y="0"
       x="0"
       width="8"
       patternUnits="userSpaceOnUse"
       id="Hatch"
       height="8">
      <path
         id="path5969"
         stroke-width="0.25"
         stroke="#000000"
         linecap="square"
         d="M8 4 l-4,4" />
      <path
         id="path5971"
         stroke-width="0.25"
         stroke="#000000"
         linecap="square"
         d="M6 2 l-4,4" />
      <path
         id="path5973"
         stroke-width="0.25"
         stroke="#000000"
         linecap="square"
         d="M4 0 l-4,4" />
    </pattern>
    <symbol
       id="*Model_Space" />
    <symbol
       id="*Paper_Space" />
    <symbol
       id="*Paper_Space0" />
    <symbol
       id="block_2" />
    <symbol
       id="block_3" />
    <symbol
       id="block_4" />
    <symbol
       id="block_5" />
    <symbol
       id="block_6" />
    <symbol
       id="block_7" />
    <symbol
       id="block_8" />
    <symbol
       id="block_9" />
    <symbol
       id="block_10" />
    <symbol
       id="block_11" />
    <symbol
       id="block_12" />
    <symbol
       id="block_13" />
    <symbol
       id="block_14" />
    <symbol
       id="block_15" />
    <symbol
       id="block_16" />
    <symbol
       id="block_17" />
    <symbol
       id="block_18" />
    <symbol
       id="block_19" />
    <symbol
       id="block_20" />
    <symbol
       id="block_21" />
    <symbol
       id="block_22" />
    <symbol
       id="block_23" />
    <symbol
       id="block_24" />
    <symbol
       id="block_25" />
    <symbol
       id="block_26" />
    <symbol
       id="block_27" />
    <symbol
       id="block_28" />
    <symbol
       id="block_29" />
    <symbol
       id="block_30" />
    <symbol
       id="block_31" />
    <symbol
       id="block_32" />
    <symbol
       id="block_33" />
    <symbol
       id="block_34" />
    <symbol
       id="block_35" />
    <symbol
       id="block_36" />
    <symbol
       id="block_37" />
    <symbol
       id="block_38" />
    <symbol
       id="block_39" />
    <symbol
       id="block_40" />
    <symbol
       id="block_41" />
    <symbol
       id="block_42" />
    <symbol
       id="block_43" />
    <symbol
       id="block_44" />
    <symbol
       id="block_45" />
    <symbol
       id="block_46" />
    <symbol
       id="block_47" />
    <symbol
       id="block_48" />
    <symbol
       id="block_49" />
    <symbol
       id="block_50" />
    <symbol
       id="block_51" />
    <symbol
       id="block_52" />
    <symbol
       id="block_53" />
    <symbol
       id="block_54" />
    <symbol
       id="block_55" />
    <symbol
       id="block_56" />
    <symbol
       id="block_57" />
    <symbol
       id="block_58" />
    <symbol
       id="block_59" />
    <symbol
       id="block_60" />
    <symbol
       id="block_61" />
    <symbol
       id="block_62" />
    <symbol
       id="block_63" />
    <symbol
       id="block_64" />
    <symbol
       id="block_65" />
    <symbol
       id="block_66" />
    <symbol
       id="block_67" />
    <symbol
       id="block_68" />
    <symbol
       id="block_69" />
    <symbol
       id="block_70" />
    <symbol
       id="block_71" />
    <symbol
       id="block_72" />
    <symbol
       id="block_73" />
    <symbol
       id="block_74" />
    <symbol
       id="block_75" />
    <symbol
       id="block_76" />
    <symbol
       id="block_77" />
    <symbol
       id="block_78" />
    <symbol
       id="block_79" />
    <symbol
       id="block_80" />
    <symbol
       id="block_81" />
    <symbol
       id="block_82" />
    <symbol
       id="block_83" />
    <symbol
       id="block_84" />
    <symbol
       id="block_85" />
    <symbol
       id="block_86" />
    <symbol
       id="block_87" />
    <symbol
       id="block_88" />
    <symbol
       id="block_89" />
    <symbol
       id="block_90" />
    <symbol
       id="block_91" />
    <symbol
       id="block_92" />
    <symbol
       id="block_93" />
    <symbol
       id="block_94" />
    <symbol
       id="block_95" />
    <symbol
       id="block_96" />
    <symbol
       id="block_97" />
    <symbol
       id="block_98" />
    <symbol
       id="block_99" />
    <symbol
       id="block_100" />
    <symbol
       id="block_101" />
    <symbol
       id="block_102" />
    <symbol
       id="block_103" />
  </defs>
  <sodipodi:namedview
     id="base"
     pagecolor="#ffffff"
     bordercolor="#666666"
     borderopacity="1.0"
     inkscape:pageopacity="0.0"
     inkscape:pageshadow="2"
     inkscape:zoom="0.5"
     inkscape:cx="690.52364"
     inkscape:cy="274.44441"
     inkscape:document-units="mm"
     inkscape:current-layer="layer1"
     showgrid="false"
     inkscape:window-width="1920"
     inkscape:window-height="1027"
     inkscape:window-x="0"
     inkscape:window-y="0"
     inkscape:window-maximized="1"
     showguides="false">
    <inkscape:grid
       type="xygrid"
       id="grid4138"
       units="mm"
       spacingx="3.5433071"
       spacingy="3.5433072" />
    <sodipodi:guide
       position="-274.35744,861.25606"
       orientation="1,0"
       id="guide4559" />
  </sodipodi:namedview>
  <metadata
     id="metadata7">
    <rdf:RDF>
      <cc:Work
         rdf:about="">
        <dc:format>image/svg+xml</dc:format>
        <dc:type
           rdf:resource="http://purl.org/dc/dcmitype/StillImage" />
        <dc:title></dc:title>
      </cc:Work>
    </rdf:RDF>
  </metadata>
  <g
     inkscape:label="Layer 1"
     inkscape:groupmode="layer"
     id="layer1"
     transform="translate(0,-308.26772)">
    <text
       xml:space="preserve"
       style="font-style:normal;font-variant:normal;font-weight:normal;font-stretch:normal;font-size:40px;line-height:125%;font-family:'Times New Roman';-inkscape-font-specification:'Times New Roman, ';letter-spacing:0px;word-spacing:0px;fill:#000000;fill-opacity:1;stroke:none;stroke-width:1px;stroke-linecap:butt;stroke-linejoin:miter;stroke-opacity:1"
       x="84"
       y="506.36221"
       id="text4465"
       sodipodi:linespacing="125%"><tspan
         sodipodi:role="line"
         id="tspan4467"
         x="84"
         y="506.36221" /></text>
    <path
       style="opacity:1;fill:none;fill-opacity:0.3357143;stroke:#000000;stroke-width:0.70866144;stroke-linecap:butt;stroke-linejoin:miter;stroke-miterlimit:4;stroke-dasharray:none;stroke-dashoffset:0;stroke-opacity:1"
       d="m 106.80474,331.95239 -0.19531,0.0918 -32.921875,-0.0332 c -0.588871,0.0428 -0.92524,0.33696 -1.00586,0.83789 L 35.373101,509.51294 c -0.0466,0.43272 0.126229,0.82466 0.480469,0.97461 0.0144,0.006 0.554688,0.16406 0.554688,0.16406 l -13.941407,32.26953 32.304688,13.67188 13.759766,-32.53907 c 0.78426,0.33178 4.669921,2.23243 4.669921,2.23243 l -0.04687,116.94332 c 0.0295,0.537 0.295827,0.696 0.847657,0.7285 l 32.724607,0.049 0.11328,-0.082 1.63672,-1.0644 1.59375,1.0879 805.29297,0 1.59375,-1.0762 1.5957,1.0762 0.10352,0 0.082,0.059 32.72461,-0.049 c 0.55183,-0.033 0.81815,-0.1915 0.84765,-0.7285 l -0.0469,-116.94332 c 0,0 3.88761,-1.90065 4.67187,-2.23243 l 13.75782,32.53907 32.30474,-13.67188 -13.94144,-32.26953 c 0,0 0.5407,-0.15806 0.5547,-0.16406 0.3542,-0.14995 0.5274,-0.54189 0.4804,-0.97461 l -37.3085,-176.66456 c -0.0806,-0.50093 -0.41699,-0.79509 -1.00586,-0.83789 l -32.24219,0.0332 -0.0918,-0.0918 -0.89063,0 -1.52539,1.02735 -0.0449,0.0273 0,0.004 -0.0254,0.0176 -1.59375,-1.07617 -805.29297,0 -1.59375,1.03711 -1.67188,-1.03711 z m 52.61524,120.59571 c 19.47126,2e-5 35.25584,15.72494 35.25586,35.12109 -2e-5,19.39615 -15.7846,35.11912 -35.25586,35.11914 -19.47126,-2e-5 -35.25584,-15.72299 -35.25586,-35.11914 2e-5,-19.39615 15.7846,-35.12107 35.25586,-35.12109 z m 706.29687,0.86328 c 19.47126,2e-5 35.25583,15.72299 35.25586,35.11914 -2e-5,19.39615 -15.7846,35.12107 -35.25586,35.12109 -19.47126,-3e-5 -35.25584,-15.72494 -35.25585,-35.12109 3e-5,-19.39614 15.78459,-35.11911 35.25585,-35.11914 z"
       id="rect4774"
       inkscape:connector-curvature="0" />
    <g
       id="g6080"
       inkscape:label="0"
       transform="translate(0,308.26772)">
      <use
         id="use6082"
         xlink:href="#block_2"
         y="-1052.3622"
         x="0"
         width="100%"
         height="100%" />
      <use
         id="use6084"
         xlink:href="#block_3"
         y="-1052.3622"
         x="0"
         width="100%"
         height="100%" />
      <use
         id="use6086"
         xlink:href="#block_4"
         y="-1052.3622"
         x="0"
         width="100%"
         height="100%" />
      <use
         id="use6088"
         xlink:href="#block_5"
         y="-1052.3622"
         x="0"
         width="100%"
         height="100%" />
      <use
         id="use6090"
         xlink:href="#block_6"
         y="-1052.3622"
         x="0"
         width="100%"
         height="100%" />
      <use
         id="use6092"
         xlink:href="#block_7"
         y="-1052.3622"
         x="0"
         width="100%"
         height="100%" />
      <use
         id="use6094"
         xlink:href="#block_8"
         y="-1052.3622"
         x="0"
         width="100%"
         height="100%" />
      <use
         id="use6096"
         xlink:href="#block_9"
         y="-1052.3622"
         x="0"
         width="100%"
         height="100%" />
      <use
         id="use6098"
         xlink:href="#block_10"
         y="-1052.3622"
         x="0"
         width="100%"
         height="100%" />
      <use
         id="use6100"
         xlink:href="#block_11"
         y="-1052.3622"
         x="0"
         width="100%"
         height="100%" />
      <use
         id="use6102"
         xlink:href="#block_12"
         y="-1052.3622"
         x="0"
         width="100%"
         height="100%" />
      <use
         id="use6104"
         xlink:href="#block_13"
         y="-1052.3622"
         x="0"
         width="100%"
         height="100%" />
      <use
         id="use6106"
         xlink:href="#block_14"
         y="-1052.3622"
         x="0"
         width="100%"
         height="100%" />
      <use
         id="use6108"
         xlink:href="#block_15"
         y="-1052.3622"
         x="0"
         width="100%"
         height="100%" />
      <use
         id="use6110"
         xlink:href="#block_16"
         y="-1052.3622"
         x="0"
         width="100%"
         height="100%" />
      <use
         id="use6112"
         xlink:href="#block_17"
         y="-1052.3622"
         x="0"
         width="100%"
         height="100%" />
      <use
         id="use6114"
         xlink:href="#block_18"
         y="-1052.3622"
         x="0"
         width="100%"
         height="100%" />
      <use
         id="use6116"
         xlink:href="#block_19"
         y="-1052.3622"
         x="0"
         width="100%"
         height="100%" />
      <use
         id="use6118"
         xlink:href="#block_20"
         y="-1052.3622"
         x="0"
         width="100%"
         height="100%" />
      <use
         id="use6120"
         xlink:href="#block_21"
         y="-1052.3622"
         x="0"
         width="100%"
         height="100%" />
      <use
         id="use6122"
         xlink:href="#block_22"
         y="-1052.3622"
         x="0"
         width="100%"
         height="100%" />
      <use
         id="use6124"
         xlink:href="#block_23"
         y="-1052.3622"
         x="0"
         width="100%"
         height="100%" />
      <use
         id="use6126"
         xlink:href="#block_24"
         y="-1052.3622"
         x="0"
         width="100%"
         height="100%" />
      <use
         id="use6128"
         xlink:href="#block_25"
         y="-1052.3622"
         x="0"
         width="100%"
         height="100%" />
      <use
         id="use6130"
         xlink:href="#block_26"
         y="-1052.3622"
         x="0"
         width="100%"
         height="100%" />
      <use
         id="use6132"
         xlink:href="#block_27"
         y="-1052.3622"
         x="0"
         width="100%"
         height="100%" />
      <use
         id="use6134"
         xlink:href="#block_28"
         y="-1052.3622"
         x="0"
         width="100%"
         height="100%" />
      <use
         id="use6136"
         xlink:href="#block_29"
         y="-1052.3622"
         x="0"
         width="100%"
         height="100%" />
      <use
         id="use6138"
         xlink:href="#block_30"
         y="-1052.3622"
         x="0"
         width="100%"
         height="100%" />
      <use
         id="use6140"
         xlink:href="#block_31"
         y="-1052.3622"
         x="0"
         width="100%"
         height="100%" />
      <use
         id="use6142"
         xlink:href="#block_32"
         y="-1052.3622"
         x="0"
         width="100%"
         height="100%" />
      <use
         id="use6144"
         xlink:href="#block_33"
         y="-1052.3622"
         x="0"
         width="100%"
         height="100%" />
      <use
         id="use6146"
         xlink:href="#block_34"
         y="-1052.3622"
         x="0"
         width="100%"
         height="100%" />
      <use
         id="use6148"
         xlink:href="#block_35"
         y="-1052.3622"
         x="0"
         width="100%"
         height="100%" />
      <use
         id="use6150"
         xlink:href="#block_36"
         y="-1052.3622"
         x="0"
         width="100%"
         height="100%" />
      <use
         id="use6152"
         xlink:href="#block_37"
         y="-1052.3622"
         x="0"
         width="100%"
         height="100%" />
      <use
         id="use6154"
         xlink:href="#block_38"
         y="-1052.3622"
         x="0"
         width="100%"
         height="100%" />
      <use
         id="use6156"
         xlink:href="#block_39"
         y="-1052.3622"
         x="0"
         width="100%"
         height="100%" />
      <use
         id="use6158"
         xlink:href="#block_40"
         y="-1052.3622"
         x="0"
         width="100%"
         height="100%" />
      <use
         id="use6160"
         xlink:href="#block_41"
         y="-1052.3622"
         x="0"
         width="100%"
         height="100%" />
      <use
         id="use6162"
         xlink:href="#block_42"
         y="-1052.3622"
         x="0"
         width="100%"
         height="100%" />
      <use
         id="use6164"
         xlink:href="#block_43"
         y="-1052.3622"
         x="0"
         width="100%"
         height="100%" />
      <use
         id="use6166"
         xlink:href="#block_44"
         y="-1052.3622"
         x="0"
         width="100%"
         height="100%" />
      <use
         id="use6168"
         xlink:href="#block_45"
         y="-1052.3622"
         x="0"
         width="100%"
         height="100%" />
      <use
         id="use6170"
         xlink:href="#block_46"
         y="-1052.3622"
         x="0"
         width="100%"
         height="100%" />
      <use
         id="use6172"
         xlink:href="#block_47"
         y="-1052.3622"
         x="0"
         width="100%"
         height="100%" />
      <use
         id="use6174"
         xlink:href="#block_48"
         y="-1052.3622"
         x="0"
         width="100%"
         height="100%" />
      <use
         id="use6176"
         xlink:href="#block_49"
         y="-1052.3622"
         x="0"
         width="100%"
         height="100%" />
      <use
         id="use6178"
         xlink:href="#block_50"
         y="-1052.3622"
         x="0"
         width="100%"
         height="100%" />
      <use
         id="use6180"
         xlink:href="#block_51"
         y="-1052.3622"
         x="0"
         width="100%"
         height="100%" />
      <use
         id="use6182"
         xlink:href="#block_52"
         y="-1052.3622"
         x="0"
         width="100%"
         height="100%" />
      <use
         id="use6184"
         xlink:href="#block_53"
         y="-1052.3622"
         x="0"
         width="100%"
         height="100%" />
      <use
         id="use6186"
         xlink:href="#block_54"
         y="-1052.3622"
         x="0"
         width="100%"
         height="100%" />
      <use
         id="use6188"
         xlink:href="#block_55"
         y="-1052.3622"
         x="0"
         width="100%"
         height="100%" />
      <use
         id="use6190"
         xlink:href="#block_56"
         y="-1052.3622"
         x="0"
         width="100%"
         height="100%" />
      <use
         id="use6192"
         xlink:href="#block_57"
         y="-1052.3622"
         x="0"
         width="100%"
         height="100%" />
      <use
         id="use6194"
         xlink:href="#block_58"
         y="-1052.3622"
         x="0"
         width="100%"
         height="100%" />
      <use
         id="use6196"
         xlink:href="#block_59"
         y="-1052.3622"
         x="0"
         width="100%"
         height="100%" />
      <use
         id="use6198"
         xlink:href="#block_60"
         y="-1052.3622"
         x="0"
         width="100%"
         height="100%" />
      <use
         id="use6200"
         xlink:href="#block_61"
         y="-1052.3622"
         x="0"
         width="100%"
         height="100%" />
      <use
         id="use6202"
         xlink:href="#block_62"
         y="-1052.3622"
         x="0"
         width="100%"
         height="100%" />
      <use
         id="use6204"
         xlink:href="#block_63"
         y="-1052.3622"
         x="0"
         width="100%"
         height="100%" />
      <use
         id="use6206"
         xlink:href="#block_64"
         y="-1052.3622"
         x="0"
         width="100%"
         height="100%" />
      <use
         id="use6208"
         xlink:href="#block_65"
         y="-1052.3622"
         x="0"
         width="100%"
         height="100%" />
      <use
         id="use6210"
         xlink:href="#block_66"
         y="-1052.3622"
         x="0"
         width="100%"
         height="100%" />
      <use
         id="use6212"
         xlink:href="#block_67"
         y="-1052.3622"
         x="0"
         width="100%"
         height="100%" />
      <use
         id="use6214"
         xlink:href="#block_68"
         y="-1052.3622"
         x="0"
         width="100%"
         height="100%" />
      <use
         id="use6216"
         xlink:href="#block_69"
         y="-1052.3622"
         x="0"
         width="100%"
         height="100%" />
      <use
         id="use6218"
         xlink:href="#block_70"
         y="-1052.3622"
         x="0"
         width="100%"
         height="100%" />
      <use
         id="use6220"
         xlink:href="#block_71"
         y="-1052.3622"
         x="0"
         width="100%"
         height="100%" />
      <use
         id="use6222"
         xlink:href="#block_72"
         y="-1052.3622"
         x="0"
         width="100%"
         height="100%" />
      <use
         id="use6224"
         xlink:href="#block_73"
         y="-1052.3622"
         x="0"
         width="100%"
         height="100%" />
      <use
         id="use6226"
         xlink:href="#block_74"
         y="-1052.3622"
         x="0"
         width="100%"
         height="100%" />
      <use
         id="use6228"
         xlink:href="#block_75"
         y="-1052.3622"
         x="0"
         width="100%"
         height="100%" />
      <use
         id="use6230"
         xlink:href="#block_76"
         y="-1052.3622"
         x="0"
         width="100%"
         height="100%" />
      <use
         id="use6232"
         xlink:href="#block_77"
         y="-1052.3622"
         x="0"
         width="100%"
         height="100%" />
      <use
         id="use6234"
         xlink:href="#block_78"
         y="-1052.3622"
         x="0"
         width="100%"
         height="100%" />
      <use
         id="use6236"
         xlink:href="#block_79"
         y="-1052.3622"
         x="0"
         width="100%"
         height="100%" />
      <use
         id="use6238"
         xlink:href="#block_80"
         y="-1052.3622"
         x="0"
         width="100%"
         height="100%" />
      <use
         id="use6240"
         xlink:href="#block_81"
         y="-1052.3622"
         x="0"
         width="100%"
         height="100%" />
      <use
         id="use6242"
         xlink:href="#block_82"
         y="-1052.3622"
         x="0"
         width="100%"
         height="100%" />
      <use
         id="use6244"
         xlink:href="#block_83"
         y="-1052.3622"
         x="0"
         width="100%"
         height="100%" />
      <use
         id="use6246"
         xlink:href="#block_84"
         y="-1052.3622"
         x="0"
         width="100%"
         height="100%" />
      <use
         id="use6248"
         xlink:href="#block_85"
         y="-1052.3622"
         x="0"
         width="100%"
         height="100%" />
      <use
         id="use6250"
         xlink:href="#block_86"
         y="-1052.3622"
         x="0"
         width="100%"
         height="100%" />
      <use
         id="use6252"
         xlink:href="#block_87"
         y="-1052.3622"
         x="0"
         width="100%"
         height="100%" />
      <use
         id="use6254"
         xlink:href="#block_88"
         y="-1052.3622"
         x="0"
         width="100%"
         height="100%" />
      <use
         id="use6256"
         xlink:href="#block_89"
         y="-1052.3622"
         x="0"
         width="100%"
         height="100%" />
      <use
         id="use6258"
         xlink:href="#block_90"
         y="-1052.3622"
         x="0"
         width="100%"
         height="100%" />
      <use
         id="use6260"
         xlink:href="#block_91"
         y="-1052.3622"
         x="0"
         width="100%"
         height="100%" />
      <use
         id="use6262"
         xlink:href="#block_92"
         y="-1052.3622"
         x="0"
         width="100%"
         height="100%" />
      <use
         id="use6264"
         xlink:href="#block_93"
         y="-1052.3622"
         x="0"
         width="100%"
         height="100%" />
      <use
         id="use6266"
         xlink:href="#block_94"
         y="-1052.3622"
         x="0"
         width="100%"
         height="100%" />
      <use
         id="use6268"
         xlink:href="#block_95"
         y="-1052.3622"
         x="0"
         width="100%"
         height="100%" />
      <use
         id="use6270"
         xlink:href="#block_96"
         y="-1052.3622"
         x="0"
         width="100%"
         height="100%" />
      <use
         id="use6272"
         xlink:href="#block_97"
         y="-1052.3622"
         x="0"
         width="100%"
         height="100%" />
      <use
         id="use6274"
         xlink:href="#block_98"
         y="-1052.3622"
         x="0"
         width="100%"
         height="100%" />
      <use
         id="use6276"
         xlink:href="#block_99"
         y="-1052.3622"
         x="0"
         width="100%"
         height="100%" />
      <use
         id="use6278"
         xlink:href="#block_100"
         y="-1052.3622"
         x="0"
         width="100%"
         height="100%" />
      <use
         id="use6280"
         xlink:href="#block_101"
         y="-1052.3622"
         x="0"
         width="100%"
         height="100%" />
      <use
         id="use6282"
         xlink:href="#block_102"
         y="-1052.3622"
         x="0"
         width="100%"
         height="100%" />
      <use
         id="use6284"
         xlink:href="#block_103"
         y="-1052.3622"
         x="0"
         width="100%"
         height="100%" />
    </g>
  </g>
</svg>
