<?xml version="1.0" encoding="UTF-8" standalone="no"?>
<!-- Created with Inkscape (http://www.inkscape.org/) -->

<svg
   xmlns:dc="http://purl.org/dc/elements/1.1/"
   xmlns:cc="http://creativecommons.org/ns#"
   xmlns:rdf="http://www.w3.org/1999/02/22-rdf-syntax-ns#"
   xmlns:svg="http://www.w3.org/2000/svg"
   xmlns="http://www.w3.org/2000/svg"
   xmlns:sodipodi="http://sodipodi.sourceforge.net/DTD/sodipodi-0.dtd"
   xmlns:inkscape="http://www.inkscape.org/namespaces/inkscape"
   width="297mm"
   height="210mm"
   viewBox="0 0 1052.3622 744.09448"
   id="svg4273"
   version="1.1"
   inkscape:version="0.91 r13725"
   sodipodi:docname="spline.svg"
   inkscape:export-filename="/media/ibnteo/data/sites/kladenets/spline/spline.png"
   inkscape:export-xdpi="73"
   inkscape:export-ydpi="73">
  <defs
     id="defs4275" />
  <sodipodi:namedview
     id="base"
     pagecolor="#ffffff"
     bordercolor="#666666"
     borderopacity="1.0"
     inkscape:pageopacity="0.0"
     inkscape:pageshadow="2"
     inkscape:zoom="0.98994949"
     inkscape:cx="579.86533"
     inkscape:cy="343.44102"
     inkscape:document-units="mm"
     inkscape:current-layer="layer1"
     showgrid="false"
     inkscape:window-width="1920"
     inkscape:window-height="1027"
     inkscape:window-x="0"
     inkscape:window-y="0"
     inkscape:window-maximized="1" />
  <metadata
     id="metadata4278">
    <rdf:RDF>
      <cc:Work
         rdf:about="">
        <dc:format>image/svg+xml</dc:format>
        <dc:type
           rdf:resource="http://purl.org/dc/dcmitype/StillImage" />
        <dc:title></dc:title>
      </cc:Work>
    </rdf:RDF>
  </metadata>
  <g
     inkscape:label="Layer 1"
     inkscape:groupmode="layer"
     id="layer1"
     transform="translate(0,-308.26772)">
    <path
       style="opacity:0.8;fill:#d1d1d1;fill-opacity:1;stroke:#000000;stroke-width:0.35433072;stroke-linecap:butt;stroke-linejoin:miter;stroke-miterlimit:4;stroke-dasharray:none;stroke-dashoffset:0;stroke-opacity:1"
       d="m 92.998047,606.09864 0,17.36132 -35.078125,0 0,17.7168 786.632808,0 0,-17.7168 -34.66992,0 0,-17.36132 -50.99219,0 0,17.36132 -35.07812,0 0,-17.36132 -49.92188,0 0,17.36132 -35.07812,0 0,-17.36132 -49.74414,0 0,17.36132 -35.08008,0 0,-17.36132 -50.1875,0 0,17.36132 -35.07812,0 0,-17.36132 -35.23828,0 0,17.36132 -35.07813,0 0,-17.36132 -50.31836,0 0,17.36132 -35.08008,0 0,-17.36132 -49.91992,0 0,17.36132 -35.08008,0 0,-17.36132 -49.74219,0 0,17.36132 -35.07812,0 0,-17.36132 -50.189453,0 z"
       id="rect4919"
       inkscape:connector-curvature="0"
       inkscape:export-xdpi="73"
       inkscape:export-ydpi="73" />
    <path
       style="opacity:0.8;fill:#d1d1d1;fill-opacity:1;stroke:#000000;stroke-width:0.35433072;stroke-linecap:butt;stroke-linejoin:miter;stroke-miterlimit:4;stroke-dasharray:none;stroke-dashoffset:0;stroke-opacity:1"
       d="m 92.998047,330.91647 0,17.36132 -35.078125,0 0,17.71679 786.632808,0 0,-17.71679 -34.66992,0 0,-17.36132 -50.99219,0 0,17.36132 -35.07812,0 0,-17.36132 -49.92188,0 0,17.36132 -35.07812,0 0,-17.36132 -49.74414,0 0,17.36132 -35.08008,0 0,-17.36132 -50.1875,0 0,17.36132 -22.28125,0 -12.79687,0 -70.31641,0 0,-17.36132 -50.31836,0 0,17.36132 -35.08008,0 0,-17.36132 -49.91992,0 0,17.36132 -35.08008,0 0,-17.36132 -49.74219,0 0,17.36132 -35.07812,0 0,-17.36132 -50.189453,0 z"
       id="path4951"
       inkscape:connector-curvature="0"
       inkscape:export-xdpi="73"
       inkscape:export-ydpi="73" />
    <path
       style="opacity:0.8;fill:#d1d1d1;fill-opacity:1;stroke:#000000;stroke-width:0.35433072;stroke-linecap:butt;stroke-linejoin:miter;stroke-miterlimit:4;stroke-dasharray:none;stroke-dashoffset:0;stroke-opacity:1"
       d="m 92.998047,386.81236 0,17.36133 -17.472656,0 0,17.7168 340.251949,0 0,-17.7168 -17.37109,0 0,-17.36133 -50.31836,0 0,17.36133 -35.08008,0 0,-17.36133 -49.91992,0 0,17.36133 -35.08008,0 0,-17.36133 -49.74219,0 0,17.36133 -35.07812,0 0,-17.36133 -50.189453,0 z"
       id="path4961"
       inkscape:connector-curvature="0"
       inkscape:export-xdpi="73"
       inkscape:export-ydpi="73" />
    <path
       id="path4970"
       d="m 503.71233,386.81236 0,17.36133 -17.47265,0 0,17.7168 340.25195,0 0,-17.7168 -17.37109,0 0,-17.36133 -50.31836,0 0,17.36133 -35.08008,0 0,-17.36133 -49.91992,0 0,17.36133 -35.08008,0 0,-17.36133 -49.74219,0 0,17.36133 -35.07812,0 0,-17.36133 -50.18946,0 z"
       style="opacity:0.8;fill:#d1d1d1;fill-opacity:1;stroke:#000000;stroke-width:0.35433072;stroke-linecap:butt;stroke-linejoin:miter;stroke-miterlimit:4;stroke-dasharray:none;stroke-dashoffset:0;stroke-opacity:1"
       inkscape:connector-curvature="0"
       inkscape:export-xdpi="73"
       inkscape:export-ydpi="73" />
    <rect
       inkscape:export-ydpi="73"
       inkscape:export-xdpi="73"
       y="438.34006"
       x="143.18681"
       height="152.26305"
       width="35.078739"
       id="rect4972"
       style="opacity:0.8;fill:#d1d1d1;fill-opacity:1;stroke:#000000;stroke-width:0.35433072;stroke-linecap:butt;stroke-linejoin:miter;stroke-miterlimit:4;stroke-dasharray:none;stroke-dashoffset:0;stroke-opacity:1" />
    <rect
       inkscape:export-ydpi="73"
       inkscape:export-xdpi="73"
       style="opacity:0.8;fill:#d1d1d1;fill-opacity:1;stroke:#000000;stroke-width:0.35433072;stroke-linecap:butt;stroke-linejoin:miter;stroke-miterlimit:4;stroke-dasharray:none;stroke-dashoffset:0;stroke-opacity:1"
       id="rect4974"
       width="35.078739"
       height="152.26305"
       x="228.00824"
       y="438.34006" />
    <rect
       inkscape:export-ydpi="73"
       inkscape:export-xdpi="73"
       y="438.34006"
       x="313.00827"
       height="152.26305"
       width="35.078739"
       id="rect4976"
       style="opacity:0.8;fill:#d1d1d1;fill-opacity:1;stroke:#000000;stroke-width:0.35433072;stroke-linecap:butt;stroke-linejoin:miter;stroke-miterlimit:4;stroke-dasharray:none;stroke-dashoffset:0;stroke-opacity:1" />
    <path
       inkscape:export-ydpi="73"
       inkscape:export-xdpi="73"
       sodipodi:nodetypes="cccccc"
       inkscape:connector-curvature="0"
       id="path4978"
       d="m 398.40688,438.40314 20.9366,0 14.14214,48.849 0,103.41405 -35.07874,0 z"
       style="opacity:0.8;fill:#d1d1d1;fill-opacity:1;stroke:#000000;stroke-width:0.35433072;stroke-linecap:butt;stroke-linejoin:miter;stroke-miterlimit:4;stroke-dasharray:none;stroke-dashoffset:0;stroke-opacity:1" />
    <path
       inkscape:export-ydpi="73"
       inkscape:export-xdpi="73"
       sodipodi:nodetypes="cccccc"
       inkscape:connector-curvature="0"
       id="path4980"
       d="m 481.60202,438.25074 22.1993,0 0,152.26305 -35.07874,0 0,-103.51419 z"
       style="opacity:0.8;fill:#d1d1d1;fill-opacity:1;stroke:#000000;stroke-width:0.35433072;stroke-linecap:butt;stroke-linejoin:miter;stroke-miterlimit:4;stroke-dasharray:none;stroke-dashoffset:0;stroke-opacity:1" />
    <rect
       inkscape:export-ydpi="73"
       inkscape:export-xdpi="73"
       style="opacity:0.8;fill:#d1d1d1;fill-opacity:1;stroke:#000000;stroke-width:0.35433072;stroke-linecap:butt;stroke-linejoin:miter;stroke-miterlimit:4;stroke-dasharray:none;stroke-dashoffset:0;stroke-opacity:1"
       id="rect4982"
       width="35.078739"
       height="152.26305"
       x="553.99042"
       y="438.34006" />
    <rect
       inkscape:export-ydpi="73"
       inkscape:export-xdpi="73"
       y="438.34006"
       x="638.81189"
       height="152.26305"
       width="35.078739"
       id="rect4984"
       style="opacity:0.8;fill:#d1d1d1;fill-opacity:1;stroke:#000000;stroke-width:0.35433072;stroke-linecap:butt;stroke-linejoin:miter;stroke-miterlimit:4;stroke-dasharray:none;stroke-dashoffset:0;stroke-opacity:1" />
    <rect
       inkscape:export-ydpi="73"
       inkscape:export-xdpi="73"
       style="opacity:0.8;fill:#d1d1d1;fill-opacity:1;stroke:#000000;stroke-width:0.35433072;stroke-linecap:butt;stroke-linejoin:miter;stroke-miterlimit:4;stroke-dasharray:none;stroke-dashoffset:0;stroke-opacity:1"
       id="rect4986"
       width="35.078739"
       height="152.26305"
       x="723.81189"
       y="438.34006" />
    <rect
       style="opacity:0.8;fill:#d1d1d1;fill-opacity:1;stroke:#000000;stroke-width:0.35433072;stroke-linecap:butt;stroke-linejoin:miter;stroke-miterlimit:4;stroke-dasharray:none;stroke-dashoffset:0;stroke-opacity:1"
       id="rect4988"
       width="35.078739"
       height="152.26305"
       x="58.186813"
       y="438.34006"
       inkscape:export-xdpi="73"
       inkscape:export-ydpi="73" />
    <rect
       y="438.34006"
       x="809.52618"
       height="152.26305"
       width="35.078739"
       id="rect4990"
       style="opacity:0.8;fill:#d1d1d1;fill-opacity:1;stroke:#000000;stroke-width:0.35433072;stroke-linecap:butt;stroke-linejoin:miter;stroke-miterlimit:4;stroke-dasharray:none;stroke-dashoffset:0;stroke-opacity:1"
       inkscape:export-xdpi="73"
       inkscape:export-ydpi="73" />
    <path
       style="opacity:0.8;fill:#d1d1d1;fill-opacity:1;stroke:#000000;stroke-width:0.35433072;stroke-linecap:butt;stroke-linejoin:miter;stroke-miterlimit:4;stroke-dasharray:none;stroke-dashoffset:0;stroke-opacity:1"
       d="m 536.0519,720.4356 -17.7168,0 0,17.3711 -17.36133,0 0,50.3183 17.36133,0 0,17.35159 17.7168,0 0,-85.04099 z"
       id="path4992"
       inkscape:connector-curvature="0"
       inkscape:export-xdpi="73"
       inkscape:export-ydpi="73" />
    <path
       inkscape:connector-curvature="0"
       id="path5001"
       d="m 366.03043,734.57773 17.7168,0 0,17.3711 17.36133,0 0,50.3183 -17.36133,0 0,17.35159 -17.7168,0 0,-85.04099 z"
       style="opacity:0.8;fill:#d1d1d1;fill-opacity:1;stroke:#000000;stroke-width:0.35433072;stroke-linecap:butt;stroke-linejoin:miter;stroke-miterlimit:4;stroke-dasharray:none;stroke-dashoffset:0;stroke-opacity:1"
       inkscape:export-xdpi="73"
       inkscape:export-ydpi="73" />
    <path
       style="opacity:0.8;fill:#d1d1d1;fill-opacity:1;stroke:#000000;stroke-width:0.35433072;stroke-linecap:butt;stroke-linejoin:miter;stroke-miterlimit:4;stroke-dasharray:none;stroke-dashoffset:0;stroke-opacity:1"
       d="M 92.792969 348.38867 L 92.792969 365.75195 L 57.919922 365.75195 L 57.919922 383.46875 L 844.55273 383.46875 L 844.55273 365.75195 L 810.06641 365.75195 L 810.06641 348.38867 L 621.1875 348.38867 L 621.1875 365.75195 L 586.10938 365.75195 L 586.10938 348.38867 L 536.05273 348.38867 L 536.05273 365.75195 L 518.69141 365.75195 L 518.69141 348.38867 L 468.65234 348.38867 L 468.65234 365.75195 L 433.57422 365.75195 L 433.57422 348.38867 L 383.39258 348.38867 L 383.39258 365.75195 L 366.03125 365.75195 L 366.03125 348.38867 L 316.5625 348.38867 L 316.5625 365.75195 L 281.48242 365.75195 L 281.48242 348.38867 L 92.792969 348.38867 z "
       transform="translate(0,308.26772)"
       id="rect5003"
       inkscape:export-xdpi="73"
       inkscape:export-ydpi="73" />
    <rect
       inkscape:export-ydpi="73"
       inkscape:export-xdpi="73"
       y="703.56873"
       x="433.57465"
       height="119.5993"
       width="35.078739"
       id="rect5026"
       style="opacity:0.8;fill:#d1d1d1;fill-opacity:1;stroke:#000000;stroke-width:0.35433072;stroke-linecap:butt;stroke-linejoin:miter;stroke-miterlimit:4;stroke-dasharray:none;stroke-dashoffset:0;stroke-opacity:1" />
    <rect
       inkscape:export-ydpi="73"
       inkscape:export-xdpi="73"
       y="704.08752"
       x="281.48322"
       height="119.5993"
       width="35.078739"
       id="rect5028"
       style="opacity:0.8;fill:#d1d1d1;fill-opacity:1;stroke:#000000;stroke-width:0.35433072;stroke-linecap:butt;stroke-linejoin:miter;stroke-miterlimit:4;stroke-dasharray:none;stroke-dashoffset:0;stroke-opacity:1" />
    <rect
       inkscape:export-ydpi="73"
       inkscape:export-xdpi="73"
       style="opacity:0.8;fill:#d1d1d1;fill-opacity:1;stroke:#000000;stroke-width:0.35433072;stroke-linecap:butt;stroke-linejoin:miter;stroke-miterlimit:4;stroke-dasharray:none;stroke-dashoffset:0;stroke-opacity:1"
       id="rect5030"
       width="35.078739"
       height="119.5993"
       x="586.10767"
       y="704.08752" />
    <rect
       inkscape:export-ydpi="73"
       inkscape:export-xdpi="73"
       style="opacity:0.8;fill:#d1d1d1;fill-opacity:1;stroke:#000000;stroke-width:0.35433072;stroke-linecap:butt;stroke-linejoin:miter;stroke-miterlimit:4;stroke-dasharray:none;stroke-dashoffset:0;stroke-opacity:1"
       id="rect5032"
       width="35.078739"
       height="119.5993"
       x="57.71244"
       y="703.64282" />
    <rect
       inkscape:export-ydpi="73"
       inkscape:export-xdpi="73"
       y="703.64282"
       x="810.06598"
       height="119.5993"
       width="35.078739"
       id="rect5034"
       style="opacity:0.8;fill:#d1d1d1;fill-opacity:1;stroke:#000000;stroke-width:0.35433072;stroke-linecap:butt;stroke-linejoin:miter;stroke-miterlimit:4;stroke-dasharray:none;stroke-dashoffset:0;stroke-opacity:1" />
    <path
       id="path5036"
       d="m 92.792969,836.46354 0,17.36328 -34.873047,0 0,17.7168 786.632808,0 0,-17.7168 -34.48632,0 0,-17.36328 -188.87891,0 0,17.36328 -35.07812,0 0,-17.36328 -50.05665,0 0,17.36328 -17.36132,0 0,-17.36328 -50.03907,0 0,17.36328 -35.07812,0 0,-17.36328 -50.18164,0 0,17.36328 -17.36133,0 0,-17.36328 -49.46875,0 0,17.36328 -35.08008,0 0,-17.36328 -188.689451,0 z"
       style="opacity:0.8;fill:#d1d1d1;fill-opacity:1;stroke:#000000;stroke-width:0.35433072;stroke-linecap:butt;stroke-linejoin:miter;stroke-miterlimit:4;stroke-dasharray:none;stroke-dashoffset:0;stroke-opacity:1"
       inkscape:connector-curvature="0"
       inkscape:export-xdpi="73"
       inkscape:export-ydpi="73" />
    <rect
       y="898.87146"
       x="-365.99521"
       height="17.362206"
       width="35.078739"
       id="rect4990-3"
       style="opacity:0.8;fill:#ffffff;fill-opacity:1;stroke:#000000;stroke-width:0.35433069;stroke-linecap:butt;stroke-linejoin:miter;stroke-miterlimit:4;stroke-dasharray:none;stroke-dashoffset:0;stroke-opacity:1"
       inkscape:export-xdpi="73"
       inkscape:export-ydpi="73"
       transform="matrix(0,-1,1,0,0,0)" />
    <text
       xml:space="preserve"
       style="font-style:normal;font-weight:normal;font-size:40px;line-height:125%;font-family:sans-serif;letter-spacing:0px;word-spacing:0px;fill:#000000;fill-opacity:1;stroke:none;stroke-width:1px;stroke-linecap:butt;stroke-linejoin:miter;stroke-opacity:1"
       x="886.76422"
       y="377.95413"
       id="text5053"
       sodipodi:linespacing="125%"
       inkscape:export-xdpi="73"
       inkscape:export-ydpi="73"><tspan
         sodipodi:role="line"
         id="tspan5055"
         x="886.76422"
         y="377.95413"
         style="font-size:10px">5x10mm</tspan></text>
  </g>
</svg>
